<?xml version="1.0" encoding="utf-8"?>
<!-- Generator: Adobe Illustrator 23.0.2, SVG Export Plug-In . SVG Version: 6.00 Build 0)  -->
<svg version="1.1" fill="white" id="Layer_1" xmlns="http://www.w3.org/2000/svg" xmlns:xlink="http://www.w3.org/1999/xlink" x="0px" y="0px"
	 viewBox="0 0 492 492" style="enable-background:new 0 0 492 492;" xml:space="preserve">
<g>
	<g>
		<path d="M226.8,109.3L7.9,328.2C2.8,333.3,0,340,0,347.2c0,7.2,2.8,14,7.9,19L24,382.3c10.5,10.5,27.6,10.5,38.1,0
			l183.8-183.7L430,382.7c5.1,5.1,11.8,7.9,19,7.9s14-2.8,19-7.9l16.1-16.2c5.1-5.1,7.9-11.8,7.9-19s-2.8-14-7.9-19L265,109.3
			c-5.1-5.1-11.9-7.9-19.1-7.8C238.7,101.5,231.9,104.3,226.8,109.3z"/>
	</g>
</g>
</svg>
