<?xml version="1.0" encoding="utf-8"?>
<!-- Generator: Adobe Illustrator 23.0.2, SVG Export Plug-In . SVG Version: 6.00 Build 0)  -->
<svg version="1.1" id="Layer_1" xmlns="http://www.w3.org/2000/svg" xmlns:xlink="http://www.w3.org/1999/xlink" x="0px" y="0px"
	 viewBox="0 0 512 512" style="enable-background:new 0 0 512 512;" xml:space="preserve">
<style type="text/css">
	.st0{fill:#3D3D3D;}
	.st1{fill:#898989;}
	.st2{fill:#333333;}
	.st3{fill:#FFFFFF;}
</style>
<path class="st0" d="M320,80h-32V32h-64v48h-32V0h128V80z"/>
<path class="st1" d="M368,512H144c-26.5,0-48-21.5-48-48V128h320v336C416,490.5,394.5,512,368,512z"/>
<path class="st2" d="M448,160H64V96c0-17.7,14.3-32,32-32h320c17.7,0,32,14.3,32,32V160z"/>
<path class="st3" d="M324,260c-6.2-6.2-16.4-6.2-22.6,0L260,301.4L218.6,260c-6.3-6.2-16.4-6.2-22.6,0c-6.2,6.2-6.2,16.4,0,22.6
	l41.4,41.4L196,365.4c-6.2,6.3-6.2,16.4,0,22.6s16.4,6.2,22.6,0l41.4-41.4l41.4,41.4c6.3,6.2,16.4,6.2,22.6,0s6.2-16.4,0-22.6
	L282.6,324l41.4-41.4C330.2,276.4,330.2,266.2,324,260z"/>
</svg>
