<?xml version="1.0" encoding="UTF-8" ?>
<!DOCTYPE svg PUBLIC "-//W3C//DTD SVG 1.1//EN" "http://www.w3.org/Graphics/SVG/1.1/DTD/svg11.dtd">
<svg width="512pt" height="512pt" viewBox="0 0 512 512" version="1.1" xmlns="http://www.w3.org/2000/svg">
<g id="#000000ff">
<path fill="#fff" opacity="1.00" d=" M 394.96 32.78 C 413.96 24.96 435.55 21.99 455.55 27.66 C 476.64 33.60 494.79 49.00 504.26 68.75 C 512.69 85.92 513.76 106.04 509.35 124.49 C 503.89 147.69 491.03 168.67 474.73 185.86 C 455.90 205.79 431.10 220.43 404.02 225.49 C 385.40 228.95 365.29 228.23 348.11 219.61 C 336.04 222.20 325.99 229.99 317.34 238.42 C 305.85 249.86 296.27 263.07 287.74 276.81 C 340.93 330.06 394.16 383.27 447.37 436.50 C 450.03 439.21 452.87 441.77 455.29 444.70 C 459.90 450.31 461.83 457.96 460.59 465.10 C 458.88 475.73 449.75 484.67 439.07 486.06 C 430.89 487.35 422.36 484.25 416.68 478.30 C 363.57 425.23 310.49 372.13 257.36 319.07 C 205.66 370.79 153.93 422.50 102.22 474.22 C 99.04 477.37 95.99 480.74 92.22 483.22 C 85.33 487.72 76.23 488.54 68.62 485.45 C 63.00 483.21 58.52 478.87 54.77 474.24 C 48.24 466.08 47.53 453.89 53.02 445.00 C 56.47 439.57 61.58 435.53 65.95 430.89 C 118.06 378.79 170.13 326.66 222.26 274.58 C 209.09 256.74 192.17 240.78 171.16 232.83 C 159.82 227.89 147.34 226.30 135.06 226.15 C 115.49 226.09 95.43 217.21 84.03 200.97 C 56.02 165.70 28.06 130.38 0.00 95.15 L 0.00 95.15 C 3.49 91.49 7.11 87.97 10.67 84.39 C 44.82 120.55 78.98 156.70 113.13 192.86 C 115.19 195.10 117.28 197.32 119.52 199.38 C 123.62 195.02 127.92 190.85 132.13 186.60 C 94.92 149.24 57.57 112.03 20.32 74.72 C 23.44 71.60 26.57 68.49 29.72 65.39 C 67.33 102.83 104.64 140.59 142.42 177.86 C 145.81 174.24 149.39 170.79 152.87 167.25 C 115.38 129.73 77.87 92.24 40.39 54.72 C 43.81 51.27 47.24 47.84 50.69 44.42 C 88.21 81.91 125.70 119.43 163.21 156.93 C 167.43 152.74 171.64 148.55 175.83 144.34 C 137.17 107.94 98.26 71.80 59.74 35.25 C 63.05 32.09 66.19 28.75 69.54 25.64 C 105.02 53.45 140.68 81.03 176.17 108.81 C 193.00 121.98 202.49 143.77 200.74 165.07 C 200.99 187.40 208.62 209.80 222.96 227.04 C 231.25 237.44 241.84 245.76 253.02 252.86 C 268.07 244.13 282.52 234.20 295.20 222.23 C 303.61 214.05 311.49 204.83 315.67 193.72 C 316.29 191.51 317.50 189.01 316.25 186.79 C 311.28 176.60 309.34 165.19 309.20 153.93 C 308.99 130.38 316.70 107.14 329.42 87.45 C 345.26 63.36 368.32 43.89 394.96 32.78 M 397.65 56.61 C 385.21 62.02 373.57 69.37 363.56 78.55 C 353.45 87.03 345.55 98.28 341.49 110.87 C 336.70 124.01 334.11 137.98 334.03 151.96 C 334.17 156.31 334.13 160.89 336.18 164.85 C 336.39 162.37 336.77 159.91 337.58 157.55 C 342.27 143.07 347.71 128.81 354.21 115.04 C 361.49 98.24 375.43 85.76 388.25 73.20 C 395.36 66.24 402.69 59.50 410.06 52.82 C 405.74 53.39 401.67 55.01 397.65 56.61 Z" />
</g>
</svg>
