<?xml version="1.0" encoding="UTF-8" ?>
<!DOCTYPE svg PUBLIC "-//W3C//DTD SVG 1.1//EN" "http://www.w3.org/Graphics/SVG/1.1/DTD/svg11.dtd">
<svg width="225pt" height="225pt" viewBox="0 0 225 225" version="1.1" xmlns="http://www.w3.org/2000/svg">
<g id="#000000ff">
<path fill="#fff" opacity="1.00" d=" M 125.97 0.00 L 216.71 0.00 C 219.07 0.98 221.35 2.15 223.56 3.44 C 224.05 4.87 224.53 6.31 225.00 7.75 L 225.00 101.30 C 224.37 102.40 223.74 103.49 223.11 104.58 C 223.06 105.05 222.96 105.98 222.90 106.45 C 221.14 109.71 219.38 113.06 216.77 115.75 C 183.75 148.72 150.78 181.74 117.77 214.73 C 113.87 218.50 110.42 223.08 105.13 225.00 L 100.72 225.00 C 98.38 223.87 96.04 222.61 94.20 220.74 C 66.59 193.04 38.90 165.43 11.26 137.76 C 7.34 133.75 2.97 130.07 0.00 125.25 L 0.00 118.59 C 3.55 113.36 8.39 109.24 12.77 104.73 C 43.26 74.24 73.76 43.74 104.25 13.25 C 107.28 10.22 110.14 6.94 113.83 4.69 C 117.46 2.17 121.98 1.72 125.97 0.00 M 153.41 43.82 C 152.91 43.89 151.92 44.03 151.43 44.10 C 147.16 46.73 142.39 49.51 140.74 54.58 C 140.19 55.56 139.63 56.53 139.06 57.49 C 138.96 62.16 138.95 66.82 139.07 71.48 C 142.13 78.10 147.93 83.05 154.53 85.91 C 158.18 86.05 161.83 86.05 165.47 85.92 C 167.44 84.75 169.49 83.70 171.58 82.76 C 172.55 82.20 173.52 81.64 174.50 81.08 C 175.04 81.07 176.13 81.04 176.68 81.03 C 179.05 77.95 181.56 74.97 183.81 71.80 C 186.48 67.91 186.53 63.07 187.19 58.57 C 187.40 58.17 187.81 57.36 188.01 56.96 C 185.63 54.19 184.67 50.51 182.09 47.90 C 179.56 45.07 176.60 42.43 172.88 41.34 C 166.40 39.13 159.25 40.51 153.41 43.82 Z" />
</g>
</svg>
