<?xml version="1.0" encoding="UTF-8" ?>
<!DOCTYPE svg PUBLIC "-//W3C//DTD SVG 1.1//EN" "http://www.w3.org/Graphics/SVG/1.1/DTD/svg11.dtd">
<svg width="768pt" height="768pt" viewBox="0 0 768 768" version="1.1" xmlns="http://www.w3.org/2000/svg">
<g id="#000000ff">
<path fill="#000000" opacity="1.00" d=" M 345.61 153.61 C 371.20 153.59 396.80 153.59 422.39 153.61 C 422.41 217.60 422.39 281.60 422.40 345.59 C 486.40 345.61 550.40 345.58 614.39 345.61 C 614.40 371.20 614.41 396.80 614.39 422.39 C 550.40 422.41 486.40 422.39 422.40 422.41 C 422.39 486.40 422.41 550.40 422.39 614.39 C 396.80 614.41 371.20 614.40 345.61 614.39 C 345.59 550.40 345.61 486.40 345.60 422.41 C 281.60 422.39 217.60 422.41 153.61 422.39 C 153.59 396.80 153.59 371.20 153.61 345.61 C 217.60 345.59 281.60 345.61 345.59 345.59 C 345.61 281.60 345.59 217.60 345.61 153.61 Z" />
</g>
</svg>
