<?xml version="1.0" encoding="utf-8"?>
<!-- Generator: Adobe Illustrator 23.0.2, SVG Export Plug-In . SVG Version: 6.00 Build 0)  -->
<svg version="1.1" id="Layer_1" xmlns="http://www.w3.org/2000/svg" xmlns:xlink="http://www.w3.org/1999/xlink" x="0px" y="0px"
	 viewBox="0 0 512 512" style="enable-background:new 0 0 512 512;" xml:space="preserve">
<style type="text/css">
	.st0{fill:#2e7080;}
	.st1{fill:#fff;}
	.st2{fill:#FFFFFF;}
</style>
<path class="st0" d="M484.4,425c7,0,12.6,5.7,12.6,12.6c0,7-5.7,12.6-12.6,12.6H156.8c-11.8,0-22.9-4.6-31.3-13l-74.7-74.7
	c-14.3-14.3-22.2-33.4-22.2-53.6s7.9-39.3,22.2-53.6l248-248c9.9-9.8,25.9-9.8,35.7,0l155.1,155.2c9.9,9.9,9.9,25.9,0,35.7L263,425
	H484.4z M282.2,370l189.6-189.6L316.7,25.3L127.1,214.8L282.2,370z M227.2,425l37.1-37.1L109.2,232.7l-40.6,40.6
	C49,292.9,49,325,68.7,344.7l74.7,74.7c3.6,3.6,8.3,5.5,13.4,5.5L227.2,425L227.2,425z"/>
<polygon class="st1" points="471.8,180.4 282.2,370 127.1,214.8 316.7,25.3 "/>
<path class="st2" d="M264.4,387.8L227.2,425h-70.5c-5.1,0-9.8-2-13.4-5.5l-74.7-74.7C49,325,49,293,68.7,273.3l40.6-40.6
	L264.4,387.8z"/>
<g>

	<path class="st0" d="M60.2,418.6c7,0,12.6,5.7,12.6,12.6c0,7-5.7,12.6-12.6,12.6H27.6c-7,0-12.6-5.6-12.6-12.6
		c0-7,5.7-12.6,12.6-12.6H60.2z"/>
</g>
</svg>
