<?xml version="1.0" encoding="UTF-8" ?>
<!DOCTYPE svg PUBLIC "-//W3C//DTD SVG 1.1//EN" "http://www.w3.org/Graphics/SVG/1.1/DTD/svg11.dtd">
<svg width="225pt" height="225pt" viewBox="0 0 225 225" version="1.1" xmlns="http://www.w3.org/2000/svg">
<g id="#ffffffff">
</g>
<g id="#f57c00ff">
<path fill="#f57c00" opacity="1.00" d=" M 32.43 33.59 C 34.25 33.03 36.16 32.91 38.06 32.89 C 87.99 32.92 137.93 32.88 187.87 32.91 C 197.51 32.85 206.13 41.42 206.15 51.05 C 206.20 92.00 206.20 132.96 206.15 173.91 C 206.20 183.53 197.57 192.20 187.93 192.09 C 139.29 192.12 90.64 192.08 41.99 192.10 C 39.16 192.10 36.31 192.23 33.52 191.72 C 25.36 190.04 18.84 182.32 18.85 173.93 C 18.79 133.28 18.84 92.63 18.82 51.98 C 18.53 43.70 24.43 35.73 32.43 33.59 M 161.18 61.20 C 154.45 62.44 149.30 69.16 150.02 76.00 C 150.29 84.29 159.10 90.85 167.16 88.75 C 175.44 87.19 180.41 77.46 177.17 69.75 C 174.81 63.50 167.68 59.79 161.18 61.20 M 42.23 149.98 C 64.13 150.02 86.03 150.01 107.93 149.98 C 132.83 150.14 157.74 149.96 182.65 149.97 C 170.36 134.24 157.71 118.78 145.31 103.13 C 139.49 110.33 133.81 117.64 127.90 124.76 C 116.53 108.17 105.15 91.58 93.70 75.04 C 76.60 100.05 59.37 124.99 42.23 149.98 Z" />
</g>
<g id="#fff9c4ff">
<path fill="#fff9c4" opacity="1.00" d=" M 161.18 61.20 C 167.68 59.79 174.81 63.50 177.17 69.75 C 180.41 77.46 175.44 87.19 167.16 88.75 C 159.10 90.85 150.29 84.29 150.02 76.00 C 149.30 69.16 154.45 62.44 161.18 61.20 Z" />
</g>
<g id="#942a09ff">
<path fill="#942a09" opacity="1.00" d=" M 42.23 149.98 C 59.37 124.99 76.60 100.05 93.70 75.04 C 105.15 91.58 116.53 108.17 127.90 124.76 C 121.36 133.27 114.45 141.47 107.93 149.98 C 86.03 150.01 64.13 150.02 42.23 149.98 Z" />
</g>
<g id="#bf360cff">
<path fill="#bf360c" opacity="1.00" d=" M 145.31 103.13 C 157.71 118.78 170.36 134.24 182.65 149.97 C 157.74 149.96 132.83 150.14 107.93 149.98 C 114.45 141.47 121.36 133.27 127.90 124.76 C 133.81 117.64 139.49 110.33 145.31 103.13 Z" />
</g>
</svg>
